STARTFONT 2.1
FONT -Adobe-Courier-Bold-R-Normal--20-140-100-100-M-110-ISO8859-2
SIZE 14 100 100
FONTBOUNDINGBOX 12 20 -1 -5
COMMENT $XConsortium: courB14.bdf,v 1.6 95/01/26 17:52:14 gildea Exp $
COMMENT 
COMMENT +
COMMENT  Copyright 1984-1989, 1994 Adobe Systems Incorporated.
COMMENT  Copyright 1988, 1994 Digital Equipment Corporation.
COMMENT
COMMENT  Adobe is a trademark of Adobe Systems Incorporated which may be
COMMENT  registered in certain jurisdictions.
COMMENT  Permission to use these trademarks is hereby granted only in
COMMENT  association with the images described in this file.
COMMENT
COMMENT  Permission to use, copy, modify, distribute and sell this software
COMMENT  and its documentation for any purpose and without fee is hereby
COMMENT  granted, provided that the above copyright notices appear in all
COMMENT  copies and that both those copyright notices and this permission
COMMENT  notice appear in supporting documentation, and that the names of
COMMENT  Adobe Systems and Digital Equipment Corporation not be used in
COMMENT  advertising or publicity pertaining to distribution of the software
COMMENT  without specific, written prior permission.  Adobe Systems and
COMMENT  Digital Equipment Corporation make no representations about the
COMMENT  suitability of this software for any purpose.  It is provided "as
COMMENT  is" without express or implied warranty.
COMMENT -
COMMENT  
COMMENT  Translation to ISO8859-2 by Cub Soft;  Petr.Kolar@vslib.cz
COMMENT  
STARTPROPERTIES 28
FOUNDRY "Adobe"
FAMILY_NAME "Courier"
WEIGHT_NAME "Bold"
SLANT "R"
SETWIDTH_NAME "Normal"
ADD_STYLE_NAME ""
PIXEL_SIZE 20
POINT_SIZE 140
RESOLUTION_X 100
RESOLUTION_Y 100
SPACING "M"
AVERAGE_WIDTH 110
CHARSET_REGISTRY "ISO8859"
CHARSET_ENCODING "2"
CAP_HEIGHT 11
X_HEIGHT 9
FONT_ASCENT 13
FONT_DESCENT 5
FACE_NAME "Courier Bold"

STARTCHAR space
ENCODING 32
SWIDTH 600 0
DWIDTH 11 0
BBX 1 1 0 0
BITMAP
00
ENDCHAR
STARTCHAR exclam
ENCODING 33
SWIDTH 600 0
DWIDTH 11 0
BBX 3 12 4 0
BITMAP
e0
e0
e0
e0
e0
e0
c0
c0
c0
00
c0
c0
ENDCHAR
STARTCHAR quotedbl
ENCODING 34
SWIDTH 600 0
DWIDTH 11 0
BBX 6 6 2 6
BITMAP
cc
cc
cc
cc
88
88
ENDCHAR
STARTCHAR numbersign
ENCODING 35
SWIDTH 600 0
DWIDTH 11 0
BBX 8 14 1 -1
BITMAP
36
36
36
36
ff
ff
6c
6c
ff
ff
6c
6c
6c
6c
ENDCHAR
STARTCHAR dollar
ENCODING 36
SWIDTH 600 0
DWIDTH 11 0
BBX 8 15 1 -2
BITMAP
18
18
3f
7f
c3
c0
f0
7e
0f
03
c7
fe
fc
18
18
ENDCHAR
STARTCHAR percent
ENCODING 37
SWIDTH 600 0
DWIDTH 11 0
BBX 8 12 1 0
BITMAP
70
d8
88
d8
73
0e
78
ce
1b
11
1b
0e
ENDCHAR
STARTCHAR ampersand
ENCODING 38
SWIDTH 600 0
DWIDTH 11 0
BBX 8 10 1 0
BITMAP
3c
7e
66
60
30
7b
ff
ce
ff
7b
ENDCHAR
STARTCHAR apostrophe
ENCODING 39
SWIDTH 600 0
DWIDTH 11 0
BBX 4 5 3 7
BITMAP
30
30
60
40
80
ENDCHAR
STARTCHAR parenleft
ENCODING 40
SWIDTH 600 0
DWIDTH 11 0
BBX 4 15 4 -3
BITMAP
30
30
60
60
c0
c0
c0
c0
c0
c0
c0
60
60
30
30
ENDCHAR
STARTCHAR parenright
ENCODING 41
SWIDTH 600 0
DWIDTH 11 0
BBX 4 15 2 -3
BITMAP
c0
c0
60
60
30
30
30
30
30
30
30
60
60
c0
c0
ENDCHAR
STARTCHAR asterisk
ENCODING 42
SWIDTH 600 0
DWIDTH 11 0
BBX 8 8 1 4
BITMAP
18
18
ff
ff
18
7e
e7
42
ENDCHAR
STARTCHAR plus
ENCODING 43
SWIDTH 600 0
DWIDTH 11 0
BBX 10 10 0 0
BITMAP
0c00
0c00
0c00
0c00
ffc0
ffc0
0c00
0c00
0c00
0c00
ENDCHAR
STARTCHAR comma
ENCODING 44
SWIDTH 600 0
DWIDTH 11 0
BBX 4 5 2 -3
BITMAP
30
30
60
40
80
ENDCHAR
STARTCHAR minus
ENCODING 45
SWIDTH 600 0
DWIDTH 11 0
BBX 10 2 0 4
BITMAP
ffc0
ffc0
ENDCHAR
STARTCHAR period
ENCODING 46
SWIDTH 600 0
DWIDTH 11 0
BBX 2 2 4 0
BITMAP
c0
c0
ENDCHAR
STARTCHAR slash
ENCODING 47
SWIDTH 600 0
DWIDTH 11 0
BBX 9 16 0 -3
BITMAP
0180
0180
0300
0300
0600
0600
0c00
0c00
1800
1800
3000
3000
6000
6000
c000
c000
ENDCHAR
STARTCHAR zero
ENCODING 48
SWIDTH 600 0
DWIDTH 11 0
BBX 8 12 1 0
BITMAP
3c
7e
66
c3
c3
c3
c3
c3
c3
66
7e
3c
ENDCHAR
STARTCHAR one
ENCODING 49
SWIDTH 600 0
DWIDTH 11 0
BBX 8 12 1 0
BITMAP
18
f8
f8
18
18
18
18
18
18
18
ff
ff
ENDCHAR
STARTCHAR two
ENCODING 50
SWIDTH 600 0
DWIDTH 11 0
BBX 8 12 1 0
BITMAP
3c
7e
c7
c3
03
07
0e
1c
38
70
ff
ff
ENDCHAR
STARTCHAR three
ENCODING 51
SWIDTH 600 0
DWIDTH 11 0
BBX 8 12 1 0
BITMAP
3c
7e
66
06
0e
3c
3e
07
03
c7
fe
7c
ENDCHAR
STARTCHAR four
ENCODING 52
SWIDTH 600 0
DWIDTH 11 0
BBX 8 12 1 0
BITMAP
0e
1e
3e
36
66
66
c6
ff
ff
06
1f
1f
ENDCHAR
STARTCHAR five
ENCODING 53
SWIDTH 600 0
DWIDTH 11 0
BBX 8 12 1 0
BITMAP
7f
7f
60
60
7e
7f
67
03
03
c7
fe
7c
ENDCHAR
STARTCHAR six
ENCODING 54
SWIDTH 600 0
DWIDTH 11 0
BBX 8 12 1 0
BITMAP
0f
3f
70
60
dc
fe
e7
c3
c3
e7
7e
3c
ENDCHAR
STARTCHAR seven
ENCODING 55
SWIDTH 600 0
DWIDTH 11 0
BBX 8 12 1 0
BITMAP
ff
ff
c3
06
06
06
0c
0c
0c
18
18
18
ENDCHAR
STARTCHAR eight
ENCODING 56
SWIDTH 600 0
DWIDTH 11 0
BBX 8 12 1 0
BITMAP
3c
7e
e7
c3
66
3c
7e
e7
c3
e7
7e
3c
ENDCHAR
STARTCHAR nine
ENCODING 57
SWIDTH 600 0
DWIDTH 11 0
BBX 8 12 1 0
BITMAP
3c
7e
c3
c3
c3
c7
7f
3b
03
06
fe
f8
ENDCHAR
STARTCHAR colon
ENCODING 58
SWIDTH 600 0
DWIDTH 11 0
BBX 2 8 4 0
BITMAP
c0
c0
00
00
00
00
c0
c0
ENDCHAR
STARTCHAR semicolon
ENCODING 59
SWIDTH 600 0
DWIDTH 11 0
BBX 4 11 2 -3
BITMAP
30
30
00
00
00
00
30
30
60
40
80
ENDCHAR
STARTCHAR less
ENCODING 60
SWIDTH 600 0
DWIDTH 11 0
BBX 9 9 1 1
BITMAP
0180
0780
1e00
7800
e000
7800
1e00
0780
0180
ENDCHAR
STARTCHAR equal
ENCODING 61
SWIDTH 600 0
DWIDTH 11 0
BBX 10 6 0 2
BITMAP
ffc0
ffc0
0000
0000
ffc0
ffc0
ENDCHAR
STARTCHAR greater
ENCODING 62
SWIDTH 600 0
DWIDTH 11 0
BBX 9 9 1 1
BITMAP
c000
f000
3c00
0f00
0380
0f00
3c00
f000
c000
ENDCHAR
STARTCHAR question
ENCODING 63
SWIDTH 600 0
DWIDTH 11 0
BBX 7 11 2 0
BITMAP
7c
fe
c6
06
0e
3c
30
30
00
30
30
ENDCHAR
STARTCHAR at
ENCODING 64
SWIDTH 600 0
DWIDTH 11 0
BBX 9 13 1 -1
BITMAP
3c00
6600
c300
cf00
db00
db00
db00
db00
cf80
c000
c000
6300
3e00
ENDCHAR
STARTCHAR A
ENCODING 65
SWIDTH 600 0
DWIDTH 11 0
BBX 12 11 -1 0
BITMAP
3e00
3f00
0f00
1980
1980
1980
3fc0
3fc0
30c0
f9f0
f9f0
ENDCHAR
STARTCHAR B
ENCODING 66
SWIDTH 600 0
DWIDTH 11 0
BBX 10 11 0 0
BITMAP
fe00
ff00
3180
3180
3f00
3f80
30c0
30c0
30c0
ff80
ff00
ENDCHAR
STARTCHAR C
ENCODING 67
SWIDTH 600 0
DWIDTH 11 0
BBX 10 11 0 0
BITMAP
1ec0
7fc0
71c0
e0c0
c000
c000
c000
e000
70c0
7fc0
1f00
ENDCHAR
STARTCHAR D
ENCODING 68
SWIDTH 600 0
DWIDTH 11 0
BBX 10 11 0 0
BITMAP
fe00
ff80
6380
61c0
60c0
60c0
60c0
61c0
6380
ff80
fe00
ENDCHAR
STARTCHAR E
ENCODING 69
SWIDTH 600 0
DWIDTH 11 0
BBX 10 11 0 0
BITMAP
ffc0
ffc0
30c0
36c0
3e00
3e00
3600
30c0
30c0
ffc0
ffc0
ENDCHAR
STARTCHAR F
ENCODING 70
SWIDTH 600 0
DWIDTH 11 0
BBX 10 11 0 0
BITMAP
ffc0
ffc0
30c0
36c0
3e00
3e00
3600
3000
3000
fe00
fe00
ENDCHAR
STARTCHAR G
ENCODING 71
SWIDTH 600 0
DWIDTH 11 0
BBX 11 11 0 0
BITMAP
1ec0
7fc0
71c0
e0c0
c000
c000
c7e0
e7e0
70c0
7fc0
1f80
ENDCHAR
STARTCHAR H
ENCODING 72
SWIDTH 600 0
DWIDTH 11 0
BBX 10 11 0 0
BITMAP
f3c0
f3c0
6180
6180
7f80
7f80
6180
6180
6180
f3c0
f3c0
ENDCHAR
STARTCHAR I
ENCODING 73
SWIDTH 600 0
DWIDTH 11 0
BBX 8 11 1 0
BITMAP
ff
ff
18
18
18
18
18
18
18
ff
ff
ENDCHAR
STARTCHAR J
ENCODING 74
SWIDTH 600 0
DWIDTH 11 0
BBX 10 11 0 0
BITMAP
1fc0
1fc0
0300
0300
0300
0300
c300
c300
c300
fe00
3c00
ENDCHAR
STARTCHAR K
ENCODING 75
SWIDTH 600 0
DWIDTH 11 0
BBX 11 11 0 0
BITMAP
f7c0
f7c0
6300
6600
6c00
7c00
7e00
6700
6380
f9e0
f9e0
ENDCHAR
STARTCHAR L
ENCODING 76
SWIDTH 600 0
DWIDTH 11 0
BBX 10 11 0 0
BITMAP
fc00
fc00
3000
3000
3000
3000
30c0
30c0
30c0
ffc0
ffc0
ENDCHAR
STARTCHAR M
ENCODING 77
SWIDTH 600 0
DWIDTH 11 0
BBX 10 11 0 0
BITMAP
e1c0
e1c0
7380
7380
7f80
6d80
6d80
6d80
6180
f3c0
f3c0
ENDCHAR
STARTCHAR N
ENCODING 78
SWIDTH 600 0
DWIDTH 11 0
BBX 10 11 0 0
BITMAP
e7c0
f7c0
7180
7980
6980
6d80
6580
6780
6380
fb80
f980
ENDCHAR
STARTCHAR O
ENCODING 79
SWIDTH 600 0
DWIDTH 11 0
BBX 10 11 0 0
BITMAP
1e00
7f80
7380
e1c0
c0c0
c0c0
c0c0
e1c0
7380
7f80
1e00
ENDCHAR
STARTCHAR P
ENCODING 80
SWIDTH 600 0
DWIDTH 11 0
BBX 10 11 0 0
BITMAP
ff00
ff80
61c0
60c0
61c0
7f80
7f00
6000
6000
fc00
fc00
ENDCHAR
STARTCHAR Q
ENCODING 81
SWIDTH 600 0
DWIDTH 11 0
BBX 10 13 0 -2
BITMAP
1e00
7f80
7380
e1c0
c0c0
c0c0
c0c0
e1c0
7380
7f80
1e40
3fc0
3380
ENDCHAR
STARTCHAR R
ENCODING 82
SWIDTH 600 0
DWIDTH 11 0
BBX 11 11 0 0
BITMAP
ff00
ff80
61c0
60c0
61c0
7f80
7f00
6380
61c0
fce0
fce0
ENDCHAR
STARTCHAR S
ENCODING 83
SWIDTH 600 0
DWIDTH 11 0
BBX 9 11 1 0
BITMAP
3d80
ff80
c380
c180
f800
7f00
0f80
c180
e180
ff00
de00
ENDCHAR
STARTCHAR T
ENCODING 84
SWIDTH 600 0
DWIDTH 11 0
BBX 10 11 0 0
BITMAP
ffc0
ffc0
ccc0
ccc0
ccc0
0c00
0c00
0c00
0c00
7f80
7f80
ENDCHAR
STARTCHAR U
ENCODING 85
SWIDTH 600 0
DWIDTH 11 0
BBX 10 11 0 0
BITMAP
f7c0
f7c0
6180
6180
6180
6180
6180
6180
7380
3f00
1e00
ENDCHAR
STARTCHAR V
ENCODING 86
SWIDTH 600 0
DWIDTH 11 0
BBX 12 11 -1 0
BITMAP
f9f0
f9f0
6060
6060
30c0
30c0
1980
1980
0f00
0f00
0600
ENDCHAR
STARTCHAR W
ENCODING 87
SWIDTH 600 0
DWIDTH 11 0
BBX 12 11 -1 0
BITMAP
f9f0
f9f0
6060
6660
6660
6f60
6f60
39c0
39c0
30c0
30c0
ENDCHAR
STARTCHAR X
ENCODING 88
SWIDTH 600 0
DWIDTH 11 0
BBX 10 11 0 0
BITMAP
f3c0
f3c0
6180
3300
1e00
0c00
1e00
3300
6180
f3c0
f3c0
ENDCHAR
STARTCHAR Y
ENCODING 89
SWIDTH 600 0
DWIDTH 11 0
BBX 10 11 0 0
BITMAP
f3c0
f3c0
6180
3300
3f00
1e00
0c00
0c00
0c00
3f00
3f00
ENDCHAR
STARTCHAR Z
ENCODING 90
SWIDTH 600 0
DWIDTH 11 0
BBX 8 11 1 0
BITMAP
ff
ff
c7
ce
0c
18
30
73
e3
ff
ff
ENDCHAR
STARTCHAR bracketleft
ENCODING 91
SWIDTH 600 0
DWIDTH 11 0
BBX 4 15 4 -3
BITMAP
f0
f0
c0
c0
c0
c0
c0
c0
c0
c0
c0
c0
c0
f0
f0
ENDCHAR
STARTCHAR backslash
ENCODING 92
SWIDTH 600 0
DWIDTH 11 0
BBX 9 16 1 -3
BITMAP
c000
c000
6000
6000
3000
3000
1800
1800
0c00
0c00
0600
0600
0300
0300
0180
0180
ENDCHAR
STARTCHAR bracketright
ENCODING 93
SWIDTH 600 0
DWIDTH 11 0
BBX 4 15 2 -3
BITMAP
f0
f0
30
30
30
30
30
30
30
30
30
30
30
f0
f0
ENDCHAR
STARTCHAR asciicircum
ENCODING 94
SWIDTH 600 0
DWIDTH 11 0
BBX 8 7 1 5
BITMAP
18
3c
3c
66
66
c3
c3
ENDCHAR
STARTCHAR underscore
ENCODING 95
SWIDTH 600 0
DWIDTH 11 0
BBX 11 2 0 -4
BITMAP
ffe0
ffe0
ENDCHAR
STARTCHAR grave
ENCODING 96
SWIDTH 600 0
DWIDTH 11 0
BBX 4 3 3 9
BITMAP
c0
60
30
ENDCHAR
STARTCHAR a
ENCODING 97
SWIDTH 600 0
DWIDTH 11 0
BBX 10 9 0 0
BITMAP
3f00
7f80
6180
0180
7f80
ff80
c180
ffc0
7dc0
ENDCHAR
STARTCHAR b
ENCODING 98
SWIDTH 600 0
DWIDTH 11 0
BBX 10 12 0 0
BITMAP
e000
e000
6000
6f00
7f80
71c0
60c0
60c0
60c0
71c0
ff80
ef00
ENDCHAR
STARTCHAR c
ENCODING 99
SWIDTH 600 0
DWIDTH 11 0
BBX 10 9 0 0
BITMAP
3d80
7f80
e380
c180
c000
c000
e1c0
7fc0
3f00
ENDCHAR
STARTCHAR d
ENCODING 100
SWIDTH 600 0
DWIDTH 11 0
BBX 10 12 0 0
BITMAP
0380
0380
0180
3d80
7f80
e380
c180
c180
c180
e380
7fc0
3dc0
ENDCHAR
STARTCHAR e
ENCODING 101
SWIDTH 600 0
DWIDTH 11 0
BBX 10 9 0 0
BITMAP
1e00
7f80
e1c0
c0c0
ffc0
ffc0
e000
7fc0
1fc0
ENDCHAR
STARTCHAR f
ENCODING 102
SWIDTH 600 0
DWIDTH 11 0
BBX 9 12 1 0
BITMAP
1f80
3f80
3000
ff00
ff00
3000
3000
3000
3000
3000
ff00
ff00
ENDCHAR
STARTCHAR g
ENCODING 103
SWIDTH 600 0
DWIDTH 11 0
BBX 10 13 0 -4
BITMAP
3dc0
7fc0
e380
c180
c180
c180
e380
7f80
3d80
0180
0380
3f00
3e00
ENDCHAR
STARTCHAR h
ENCODING 104
SWIDTH 600 0
DWIDTH 11 0
BBX 10 12 0 0
BITMAP
e000
e000
6000
6f00
7f80
7180
6180
6180
6180
6180
f3c0
f3c0
ENDCHAR
STARTCHAR i
ENCODING 105
SWIDTH 600 0
DWIDTH 11 0
BBX 8 12 1 0
BITMAP
18
18
00
f8
f8
18
18
18
18
18
ff
ff
ENDCHAR
STARTCHAR j
ENCODING 106
SWIDTH 600 0
DWIDTH 11 0
BBX 7 16 1 -4
BITMAP
0c
0c
00
fe
fe
06
06
06
06
06
06
06
06
0e
fc
f8
ENDCHAR
STARTCHAR k
ENCODING 107
SWIDTH 600 0
DWIDTH 11 0
BBX 10 12 0 0
BITMAP
e000
e000
6000
6780
6780
6e00
7c00
7c00
6e00
6700
e3c0
e3c0
ENDCHAR
STARTCHAR l
ENCODING 108
SWIDTH 600 0
DWIDTH 11 0
BBX 8 12 1 0
BITMAP
f8
f8
18
18
18
18
18
18
18
18
ff
ff
ENDCHAR
STARTCHAR m
ENCODING 109
SWIDTH 600 0
DWIDTH 11 0
BBX 12 9 -1 0
BITMAP
edc0
ffe0
7760
6660
6660
6660
6660
f770
f770
ENDCHAR
STARTCHAR n
ENCODING 110
SWIDTH 600 0
DWIDTH 11 0
BBX 10 9 0 0
BITMAP
ef00
ff80
7180
6180
6180
6180
6180
f3c0
f3c0
ENDCHAR
STARTCHAR o
ENCODING 111
SWIDTH 600 0
DWIDTH 11 0
BBX 10 9 0 0
BITMAP
1e00
7f80
e1c0
c0c0
c0c0
c0c0
e1c0
7f80
1e00
ENDCHAR
STARTCHAR p
ENCODING 112
SWIDTH 600 0
DWIDTH 11 0
BBX 10 13 0 -4
BITMAP
ef00
ff80
71c0
60c0
60c0
60c0
71c0
7f80
6f00
6000
6000
f800
f800
ENDCHAR
STARTCHAR q
ENCODING 113
SWIDTH 600 0
DWIDTH 11 0
BBX 10 13 0 -4
BITMAP
3dc0
7fc0
e380
c180
c180
c180
e380
7f80
3d80
0180
0180
07c0
07c0
ENDCHAR
STARTCHAR r
ENCODING 114
SWIDTH 600 0
DWIDTH 11 0
BBX 10 9 0 0
BITMAP
f380
ffc0
3cc0
3800
3000
3000
3000
ff00
ff00
ENDCHAR
STARTCHAR s
ENCODING 115
SWIDTH 600 0
DWIDTH 11 0
BBX 8 9 1 0
BITMAP
7f
ff
c3
f0
7e
1f
c3
ff
fe
ENDCHAR
STARTCHAR t
ENCODING 116
SWIDTH 600 0
DWIDTH 11 0
BBX 10 12 0 0
BITMAP
3000
3000
3000
ff00
ff00
3000
3000
3000
3000
30c0
3fc0
1f00
ENDCHAR
STARTCHAR u
ENCODING 117
SWIDTH 600 0
DWIDTH 11 0
BBX 10 9 0 0
BITMAP
e780
e780
6180
6180
6180
6180
6380
7fc0
3dc0
ENDCHAR
STARTCHAR v
ENCODING 118
SWIDTH 600 0
DWIDTH 11 0
BBX 10 9 0 0
BITMAP
f3c0
f3c0
6180
6180
3300
3300
1e00
1e00
0c00
ENDCHAR
STARTCHAR w
ENCODING 119
SWIDTH 600 0
DWIDTH 11 0
BBX 11 9 0 0
BITMAP
f1e0
f1e0
64c0
6ec0
6ec0
7bc0
3b80
3180
3180
ENDCHAR
STARTCHAR x
ENCODING 120
SWIDTH 600 0
DWIDTH 11 0
BBX 11 9 0 0
BITMAP
fbe0
fbe0
3180
1b00
0e00
1b00
3180
fbe0
fbe0
ENDCHAR
STARTCHAR y
ENCODING 121
SWIDTH 600 0
DWIDTH 11 0
BBX 10 13 0 -4
BITMAP
f3c0
f3c0
6180
6180
3300
3300
1e00
1e00
0c00
1800
3800
fc00
fc00
ENDCHAR
STARTCHAR z
ENCODING 122
SWIDTH 600 0
DWIDTH 11 0
BBX 8 9 1 0
BITMAP
ff
ff
c6
0c
18
30
63
ff
ff
ENDCHAR
STARTCHAR braceleft
ENCODING 123
SWIDTH 600 0
DWIDTH 11 0
BBX 4 15 3 -3
BITMAP
30
60
60
60
60
60
c0
60
60
60
60
60
60
60
30
ENDCHAR
STARTCHAR bar
ENCODING 124
SWIDTH 600 0
DWIDTH 11 0
BBX 2 14 4 -3
BITMAP
c0
c0
c0
c0
c0
c0
c0
c0
c0
c0
c0
c0
c0
c0
ENDCHAR
STARTCHAR braceright
ENCODING 125
SWIDTH 600 0
DWIDTH 11 0
BBX 4 15 3 -3
BITMAP
c0
60
60
60
60
60
30
60
60
60
60
60
60
60
c0
ENDCHAR
STARTCHAR asciitilde
ENCODING 126
SWIDTH 600 0
DWIDTH 11 0
BBX 8 3 1 4
BITMAP
73
ff
de
ENDCHAR
STARTCHAR nobreakspace
ENCODING 160
SWIDTH 600 0
DWIDTH 11 0
BBX 1 1 0 0
BITMAP
00
ENDCHAR
STARTCHAR Aogonek
ENCODING 161
SWIDTH 600 0
DWIDTH 11 0
BBX 12 15 -1 -4
BITMAP
3e00
3f00
0f00
1980
1980
1980
3fc0
3fc0
30c0
f9f0
f9f0
0600
0c00
0c00
0700
ENDCHAR
STARTCHAR breve
ENCODING 162
SWIDTH 600 0
DWIDTH 11 0
BBX 6 2 2 9
BITMAP
cc
78
ENDCHAR
STARTCHAR Lstroke
ENCODING 163
SWIDTH 600 0
DWIDTH 11 0
BBX 10 11 0 0
BITMAP
fc00
fc00
3000
3600
3c00
7800
f0c0
30c0
30c0
ffc0
ffc0
ENDCHAR
STARTCHAR currency
ENCODING 164
SWIDTH 600 0
DWIDTH 11 0
BBX 8 9 1 1
BITMAP
c3
ff
7e
c3
c3
c3
7e
ff
c3
ENDCHAR
STARTCHAR Lcaron
ENCODING 165
SWIDTH 617 0
DWIDTH 12 0
BBX 11 12 0 0
BITMAP
0060
fc60
fcc0
3080
3100
3000
3000
30c0
30c0
30c0
ffc0
ffc0
ENDCHAR
STARTCHAR Sacute
ENCODING 166
SWIDTH 600 0
DWIDTH 11 0
BBX 9 15 1 0
BITMAP
0300
0600
0c00
0000
3d80
ff80
c380
c180
f800
7f00
0f80
c180
e180
ff00
de00
ENDCHAR
STARTCHAR section
ENCODING 167
SWIDTH 600 0
DWIDTH 11 0
BBX 8 14 1 -2
BITMAP
3f
73
63
60
f8
de
c7
e3
7b
1f
06
c6
ce
fc
ENDCHAR
STARTCHAR diaeresis
ENCODING 168
SWIDTH 600 0
DWIDTH 11 0
BBX 6 2 2 9
BITMAP
cc
cc
ENDCHAR
STARTCHAR Scaron
ENCODING 169
SWIDTH 600 0
DWIDTH 11 0
BBX 9 15 1 0
BITMAP
3300
1e00
0c00
0000
3d80
ff80
c380
c180
f800
7f00
0f80
c180
e180
ff00
de00
ENDCHAR
STARTCHAR Scedilla
ENCODING 170
SWIDTH 600 0
DWIDTH 11 0
BBX 9 16 1 -5
BITMAP
3d80
ff80
c380
c180
f800
7f00
0f80
c180
e180
ff00
de00
0800
0c00
0600
1e00
1c00
ENDCHAR
STARTCHAR Tcaron
ENCODING 171
SWIDTH 600 0
DWIDTH 11 0
BBX 10 15 0 0
BITMAP
3300
1e00
0c00
0000
ffc0
ffc0
ccc0
ccc0
ccc0
0c00
0c00
0c00
0c00
7f80
7f80
ENDCHAR
STARTCHAR Zacute
ENCODING 172
SWIDTH 600 0
DWIDTH 11 0
BBX 8 15 1 0
BITMAP
06
0c
18
00
ff
ff
c7
ce
0c
18
30
73
e3
ff
ff
ENDCHAR
STARTCHAR hyphen
ENCODING 173
SWIDTH 600 0
DWIDTH 11 0
BBX 8 2 1 4
BITMAP
ff
ff
ENDCHAR
STARTCHAR Zcaron
ENCODING 174
SWIDTH 600 0
DWIDTH 11 0
BBX 8 15 1 0
BITMAP
66
3c
18
00
ff
ff
c7
ce
0c
18
30
73
e3
ff
ff
ENDCHAR
STARTCHAR Zabovedot
ENCODING 175
SWIDTH 600 0
DWIDTH 11 0
BBX 8 14 1 0
BITMAP
18
18
00
ff
ff
c7
ce
0c
18
30
73
e3
ff
ff
ENDCHAR
STARTCHAR degree
ENCODING 176
SWIDTH 600 0
DWIDTH 11 0
BBX 5 5 2 6
BITMAP
70
88
88
88
70
ENDCHAR
STARTCHAR aogonek
ENCODING 177
SWIDTH 600 0
DWIDTH 11 0
BBX 10 13 0 -4
BITMAP
3f00
7f80
6180
0180
7f80
ff80
c180
ffc0
7dc0
0c00
1800
1800
0e00
ENDCHAR
STARTCHAR ogonek
ENCODING 178
SWIDTH 600 0
DWIDTH 11 0
BBX 4 4 3 -4
BITMAP
60
c0
c0
70
ENDCHAR
STARTCHAR lstroke
ENCODING 179
SWIDTH 600 0
DWIDTH 11 0
BBX 8 12 1 0
BITMAP
f8
f8
18
18
1e
1c
38
78
18
18
ff
ff
ENDCHAR
STARTCHAR acute
ENCODING 180
SWIDTH 600 0
DWIDTH 11 0
BBX 4 3 4 9
BITMAP
30
60
c0
ENDCHAR
STARTCHAR lcaron
ENCODING 181
SWIDTH 668 0
DWIDTH 13 0
BBX 10 13 1 0
BITMAP
00c0
f8c0
f980
1900
1a00
1800
1800
1800
1800
1800
1800
ff00
ff00
ENDCHAR
STARTCHAR sacute
ENCODING 182
SWIDTH 600 0
DWIDTH 11 0
BBX 8 13 1 0
BITMAP
06
0c
18
00
7f
ff
c3
f0
7e
1f
c3
ff
fe
ENDCHAR
STARTCHAR caron
ENCODING 183
SWIDTH 600 0
DWIDTH 11 0
BBX 6 3 2 9
BITMAP
cc
78
30
ENDCHAR
STARTCHAR cedilla
ENCODING 184
SWIDTH 600 0
DWIDTH 11 0
BBX 4 5 3 -4
BITMAP
40
60
30
f0
e0
ENDCHAR
STARTCHAR scaron
ENCODING 185
SWIDTH 600 0
DWIDTH 11 0
BBX 8 13 1 0
BITMAP
66
3c
18
00
7f
ff
c3
f0
7e
1f
c3
ff
fe
ENDCHAR
STARTCHAR scedilla
ENCODING 186
SWIDTH 600 0
DWIDTH 11 0
BBX 8 14 1 -5
BITMAP
7f
ff
c3
f0
7e
1f
c3
ff
fe
10
18
0c
3c
38
ENDCHAR
STARTCHAR tcaron
ENCODING 187
SWIDTH 600 0
DWIDTH 11 0
BBX 10 15 0 0
BITMAP
0180
0180
0300
3200
3400
3000
ff00
ff00
3000
3000
3000
3000
30c0
3fc0
1f00
ENDCHAR
STARTCHAR zacute
ENCODING 188
SWIDTH 600 0
DWIDTH 11 0
BBX 8 13 1 0
BITMAP
06
0c
18
00
ff
ff
c6
0c
18
30
63
ff
ff
ENDCHAR
STARTCHAR doubleacute
ENCODING 189
SWIDTH 600 0
DWIDTH 11 0
BBX 7 3 2 9
BITMAP
36
6c
d8
ENDCHAR
STARTCHAR zcaron
ENCODING 190
SWIDTH 600 0
DWIDTH 11 0
BBX 8 13 1 0
BITMAP
66
3c
18
00
ff
ff
c6
0c
18
30
63
ff
ff
ENDCHAR
STARTCHAR zabovedot
ENCODING 191
SWIDTH 600 0
DWIDTH 11 0
BBX 8 12 1 0
BITMAP
18
18
00
ff
ff
c6
0c
18
30
63
ff
ff
ENDCHAR
STARTCHAR Racute
ENCODING 192
SWIDTH 600 0
DWIDTH 11 0
BBX 11 15 0 0
BITMAP
0300
0600
0c00
0000
ff00
ff80
61c0
60c0
61c0
7f80
7f00
6380
61c0
fce0
fce0
ENDCHAR
STARTCHAR Aacute
ENCODING 193
SWIDTH 600 0
DWIDTH 11 0
BBX 12 15 -1 0
BITMAP
0300
0600
0c00
0000
3e00
3f00
0f00
0f00
1980
1980
3fc0
3fc0
30c0
f9f0
f9f0
ENDCHAR
STARTCHAR Acircumflex
ENCODING 194
SWIDTH 600 0
DWIDTH 11 0
BBX 12 15 -1 0
BITMAP
0600
0f00
1980
0000
3e00
3f00
0f00
0f00
1980
1980
3fc0
3fc0
30c0
f9f0
f9f0
ENDCHAR
STARTCHAR Abreve
ENCODING 195
SWIDTH 600 0
DWIDTH 11 0
BBX 12 14 -1 0
BITMAP
3300
1e00
0000
3e00
3f00
0f00
1980
1980
1980
3fc0
3fc0
30c0
f9f0
f9f0
ENDCHAR
STARTCHAR Adiaeresis
ENCODING 196
SWIDTH 600 0
DWIDTH 11 0
BBX 12 14 -1 0
BITMAP
1980
1980
0000
3e00
3f00
0f00
0f00
1980
1980
3fc0
3fc0
30c0
f9f0
f9f0
ENDCHAR
STARTCHAR Lacute
ENCODING 197
SWIDTH 600 0
DWIDTH 11 0
BBX 10 15 0 0
BITMAP
0c00
1800
3000
0000
fc00
fc00
3000
3000
3000
3000
30c0
30c0
30c0
ffc0
ffc0
ENDCHAR
STARTCHAR Cacute
ENCODING 198
SWIDTH 600 0
DWIDTH 11 0
BBX 10 15 0 0
BITMAP
0180
0300
0600
0000
1ec0
7fc0
71c0
e0c0
c000
c000
c000
e000
70c0
7fc0
1f00
ENDCHAR
STARTCHAR Ccedilla
ENCODING 199
SWIDTH 600 0
DWIDTH 11 0
BBX 10 16 0 -5
BITMAP
1ec0
7fc0
61c0
c0c0
c000
c000
c000
c000
60c0
7fc0
3f00
0800
0c00
0200
1e00
1c00
ENDCHAR
STARTCHAR Ccaron
ENCODING 200
SWIDTH 600 0
DWIDTH 11 0
BBX 10 15 0 0
BITMAP
1980
0f00
0600
0000
1ec0
7fc0
71c0
e0c0
c000
c000
c000
e000
70c0
7fc0
1f00
ENDCHAR
STARTCHAR Eacute
ENCODING 201
SWIDTH 600 0
DWIDTH 11 0
BBX 10 15 0 0
BITMAP
0300
0600
0c00
0000
ffc0
ffc0
30c0
36c0
3e00
3e00
3600
30c0
30c0
ffc0
ffc0
ENDCHAR
STARTCHAR Eogonek
ENCODING 202
SWIDTH 600 0
DWIDTH 11 0
BBX 10 15 0 -4
BITMAP
ffc0
ffc0
30c0
36c0
3e00
3e00
3600
30c0
30c0
ffc0
ffc0
0c00
1800
1800
0e00
ENDCHAR
STARTCHAR Ediaeresis
ENCODING 203
SWIDTH 600 0
DWIDTH 11 0
BBX 10 14 0 0
BITMAP
3300
3300
0000
ffc0
ffc0
30c0
36c0
3e00
3e00
3600
30c0
30c0
ffc0
ffc0
ENDCHAR
STARTCHAR Ecaron
ENCODING 204
SWIDTH 600 0
DWIDTH 11 0
BBX 10 15 0 0
BITMAP
3300
1e00
0c00
0000
ffc0
ffc0
30c0
36c0
3e00
3e00
3600
30c0
30c0
ffc0
ffc0
ENDCHAR
STARTCHAR Iacute
ENCODING 205
SWIDTH 600 0
DWIDTH 11 0
BBX 8 15 1 0
BITMAP
06
0c
18
00
ff
ff
18
18
18
18
18
18
18
ff
ff
ENDCHAR
STARTCHAR Icircumflex
ENCODING 206
SWIDTH 600 0
DWIDTH 11 0
BBX 8 15 1 0
BITMAP
18
3c
66
00
ff
ff
18
18
18
18
18
18
18
ff
ff
ENDCHAR
STARTCHAR Dcaron
ENCODING 207
SWIDTH 600 0
DWIDTH 11 0
BBX 10 15 0 0
BITMAP
3300
1e00
0c00
0000
fe00
ff80
6380
61c0
60c0
60c0
60c0
61c0
6380
ff80
fe00
ENDCHAR
STARTCHAR Dstroke
ENCODING 208
SWIDTH 600 0
DWIDTH 11 0
BBX 10 11 0 0
BITMAP
fe00
ff80
6180
60c0
f8c0
f8c0
60c0
60c0
6180
ff80
fe00
ENDCHAR
STARTCHAR Nacute
ENCODING 209
SWIDTH 600 0
DWIDTH 11 0
BBX 10 15 0 0
BITMAP
0300
0600
0c00
0000
e7c0
f7c0
7180
7980
6980
6d80
6580
6780
6380
fb80
f980
ENDCHAR
STARTCHAR Ncaron
ENCODING 210
SWIDTH 600 0
DWIDTH 11 0
BBX 10 15 0 0
BITMAP
3300
1e00
0c00
0000
e7c0
f7c0
7180
7980
6980
6d80
6580
6780
6380
fb80
f980
ENDCHAR
STARTCHAR Oacute
ENCODING 211
SWIDTH 600 0
DWIDTH 11 0
BBX 10 15 0 0
BITMAP
0300
0600
0c00
0000
1e00
7f80
6180
c0c0
c0c0
c0c0
c0c0
c0c0
6180
7f80
1e00
ENDCHAR
STARTCHAR Ocircumflex
ENCODING 212
SWIDTH 600 0
DWIDTH 11 0
BBX 10 15 0 0
BITMAP
0c00
1e00
3300
0000
1e00
7f80
6180
c0c0
c0c0
c0c0
c0c0
c0c0
6180
7f80
1e00
ENDCHAR
STARTCHAR Odoubleacute
ENCODING 213
SWIDTH 600 0
DWIDTH 11 0
BBX 10 15 0 0
BITMAP
0d80
1b00
3600
0000
1e00
7f80
7380
e1c0
c0c0
c0c0
c0c0
e1c0
7380
7f80
1e00
ENDCHAR
STARTCHAR Odiaeresis
ENCODING 214
SWIDTH 600 0
DWIDTH 11 0
BBX 10 14 0 0
BITMAP
3300
3300
0000
1e00
7f80
6180
c0c0
c0c0
c0c0
c0c0
c0c0
6180
7f80
1e00
ENDCHAR
STARTCHAR multiply
ENCODING 215
SWIDTH 600 0
DWIDTH 11 0
BBX 10 10 0 0
BITMAP
4080
e1c0
7380
3700
1e00
1e00
3b00
7380
e1c0
4080
ENDCHAR
STARTCHAR Rcaron
ENCODING 216
SWIDTH 600 0
DWIDTH 11 0
BBX 11 15 0 0
BITMAP
3300
1e00
0c00
0000
ff00
ff80
61c0
60c0
61c0
7f80
7f00
6380
61c0
fce0
fce0
ENDCHAR
STARTCHAR Uring
ENCODING 217
SWIDTH 600 0
DWIDTH 11 0
BBX 10 16 0 0
BITMAP
0c00
1200
1200
0c00
0000
f7c0
f7c0
6180
6180
6180
6180
6180
6180
7380
3f00
1e00
ENDCHAR
STARTCHAR Uacute
ENCODING 218
SWIDTH 600 0
DWIDTH 11 0
BBX 10 15 0 0
BITMAP
0300
0600
0c00
0000
fbc0
fbc0
6180
6180
6180
6180
6180
6180
7380
3f00
1e00
ENDCHAR
STARTCHAR Udoubleacute
ENCODING 219
SWIDTH 600 0
DWIDTH 11 0
BBX 10 15 0 0
BITMAP
0d80
1b00
3600
0000
f7c0
f7c0
6180
6180
6180
6180
6180
6180
7380
3f00
1e00
ENDCHAR
STARTCHAR Udiaeresis
ENCODING 220
SWIDTH 600 0
DWIDTH 11 0
BBX 10 14 0 0
BITMAP
3300
3300
0000
fbc0
fbc0
6180
6180
6180
6180
6180
6180
7380
3f00
1e00
ENDCHAR
STARTCHAR Yacute
ENCODING 221
SWIDTH 600 0
DWIDTH 11 0
BBX 10 15 0 0
BITMAP
0300
0600
0c00
0000
f3c0
f3c0
6180
3300
3f00
1e00
0c00
0c00
0c00
3f00
3f00
ENDCHAR
STARTCHAR Tcedilla
ENCODING 222
SWIDTH 600 0
DWIDTH 11 0
BBX 10 16 0 -5
BITMAP
ffc0
ffc0
ccc0
ccc0
ccc0
0c00
0c00
0c00
0c00
7f80
7f80
0800
0c00
0600
1e00
1c00
ENDCHAR
STARTCHAR ssharp
ENCODING 223
SWIDTH 600 0
DWIDTH 11 0
BBX 9 12 1 0
BITMAP
3c00
7e00
6300
6300
6700
6e00
6700
6180
6180
6980
ef80
e700
ENDCHAR
STARTCHAR racute
ENCODING 224
SWIDTH 600 0
DWIDTH 11 0
BBX 10 13 0 0
BITMAP
0300
0600
0c00
0000
f380
ffc0
3cc0
3800
3000
3000
3000
ff00
ff00
ENDCHAR
STARTCHAR aacute
ENCODING 225
SWIDTH 600 0
DWIDTH 11 0
BBX 10 13 0 0
BITMAP
0300
0600
0c00
0000
3f00
7f80
6180
0180
7f80
ff80
c180
ffc0
7dc0
ENDCHAR
STARTCHAR acircumflex
ENCODING 226
SWIDTH 600 0
DWIDTH 11 0
BBX 10 13 0 0
BITMAP
0c00
1e00
3300
0000
3f00
7f80
6180
0180
7f80
ff80
c180
ffc0
7dc0
ENDCHAR
STARTCHAR abreve
ENCODING 227
SWIDTH 600 0
DWIDTH 11 0
BBX 10 12 0 0
BITMAP
3300
1e00
0000
3f00
7f80
6180
0180
7f80
ff80
c180
ffc0
7dc0
ENDCHAR
STARTCHAR adiaeresis
ENCODING 228
SWIDTH 600 0
DWIDTH 11 0
BBX 10 12 0 0
BITMAP
3300
3300
0000
3f00
7f80
6180
0180
7f80
ff80
c180
ffc0
7dc0
ENDCHAR
STARTCHAR lacute
ENCODING 229
SWIDTH 600 0
DWIDTH 11 0
BBX 8 16 1 0
BITMAP
0c
18
30
00
f8
f8
18
18
18
18
18
18
18
18
ff
ff
ENDCHAR
STARTCHAR cacute
ENCODING 230
SWIDTH 600 0
DWIDTH 11 0
BBX 10 13 0 0
BITMAP
0300
0600
0c00
0000
3d80
7f80
e380
c180
c000
c000
e1c0
7fc0
3f00
ENDCHAR
STARTCHAR ccedilla
ENCODING 231
SWIDTH 600 0
DWIDTH 11 0
BBX 10 14 0 -5
BITMAP
3d80
7f80
e380
c180
c000
c000
e1c0
7fc0
3f00
0800
0c00
0600
1e00
1c00
ENDCHAR
STARTCHAR ccaron
ENCODING 232
SWIDTH 600 0
DWIDTH 11 0
BBX 10 13 0 0
BITMAP
3300
1e00
0c00
0000
3d80
7f80
e380
c180
c000
c000
e1c0
7fc0
3f00
ENDCHAR
STARTCHAR eacute
ENCODING 233
SWIDTH 600 0
DWIDTH 11 0
BBX 10 13 0 0
BITMAP
0300
0600
0c00
0000
1e00
7f80
e1c0
c0c0
ffc0
ffc0
e000
7fc0
1fc0
ENDCHAR
STARTCHAR eogonek
ENCODING 234
SWIDTH 600 0
DWIDTH 11 0
BBX 10 13 0 -4
BITMAP
1e00
7f80
e1c0
c0c0
ffc0
ffc0
e000
7fc0
1fc0
0c00
1800
1800
0e00
ENDCHAR
STARTCHAR ediaeresis
ENCODING 235
SWIDTH 600 0
DWIDTH 11 0
BBX 10 12 0 0
BITMAP
3300
3300
0000
1e00
7f80
e1c0
c0c0
ffc0
ffc0
e000
7fc0
1fc0
ENDCHAR
STARTCHAR ecaron
ENCODING 236
SWIDTH 600 0
DWIDTH 11 0
BBX 10 13 0 0
BITMAP
3300
1e00
0c00
0000
1e00
7f80
e1c0
c0c0
ffc0
ffc0
e000
7fc0
1fc0
ENDCHAR
STARTCHAR iacute
ENCODING 237
SWIDTH 600 0
DWIDTH 11 0
BBX 8 13 1 0
BITMAP
0c
18
30
00
f8
f8
18
18
18
18
18
ff
ff
ENDCHAR
STARTCHAR icircumflex
ENCODING 238
SWIDTH 600 0
DWIDTH 11 0
BBX 8 13 1 0
BITMAP
18
3c
66
00
f8
f8
18
18
18
18
18
ff
ff
ENDCHAR
STARTCHAR dcaron
ENCODING 239
SWIDTH 771 0
DWIDTH 15 0
BBX 14 13 0 0
BITMAP
000c
038c
0398
0190
3da0
7f80
e380
c180
c180
c180
e380
7fc0
3dc0
ENDCHAR
STARTCHAR dstroke
ENCODING 240
SWIDTH 720 0
DWIDTH 14 0
BBX 13 12 0 0
BITMAP
0380
0180
fff8
3d80
7f80
e380
c180
c180
c180
e380
7fc0
3dc0
ENDCHAR
STARTCHAR nacute
ENCODING 241
SWIDTH 600 0
DWIDTH 11 0
BBX 10 13 0 0
BITMAP
0300
0600
0c00
0000
ef00
ff80
7180
6180
6180
6180
6180
f3c0
f3c0
ENDCHAR
STARTCHAR ncaron
ENCODING 242
SWIDTH 600 0
DWIDTH 11 0
BBX 10 13 0 0
BITMAP
3300
1e00
0c00
0000
ef00
ff80
7180
6180
6180
6180
6180
f3c0
f3c0
ENDCHAR
STARTCHAR oacute
ENCODING 243
SWIDTH 600 0
DWIDTH 11 0
BBX 10 13 0 0
BITMAP
0300
0600
0c00
0000
1e00
7f80
e1c0
c0c0
c0c0
c0c0
e1c0
7f80
1e00
ENDCHAR
STARTCHAR ocircumflex
ENCODING 244
SWIDTH 600 0
DWIDTH 11 0
BBX 10 13 0 0
BITMAP
0c00
1e00
3300
0000
1e00
7f80
e1c0
c0c0
c0c0
c0c0
e1c0
7f80
1e00
ENDCHAR
STARTCHAR odoubleacute
ENCODING 245
SWIDTH 600 0
DWIDTH 11 0
BBX 10 13 0 0
BITMAP
0d80
1b00
3600
0000
1e00
7f80
e1c0
c0c0
c0c0
c0c0
e1c0
7f80
1e00
ENDCHAR
STARTCHAR odiaeresis
ENCODING 246
SWIDTH 600 0
DWIDTH 11 0
BBX 10 12 0 0
BITMAP
3300
3300
0000
1e00
7f80
e1c0
c0c0
c0c0
c0c0
e1c0
7f80
1e00
ENDCHAR
STARTCHAR division
ENCODING 247
SWIDTH 600 0
DWIDTH 11 0
BBX 10 10 0 0
BITMAP
0c00
0c00
0000
0000
ffc0
ffc0
0000
0000
0c00
0c00
ENDCHAR
STARTCHAR rcaron
ENCODING 248
SWIDTH 600 0
DWIDTH 11 0
BBX 10 13 0 0
BITMAP
3300
1e00
0c00
0000
f380
ffc0
3cc0
3800
3000
3000
3000
ff00
ff00
ENDCHAR
STARTCHAR uring
ENCODING 249
SWIDTH 600 0
DWIDTH 11 0
BBX 10 14 0 0
BITMAP
0c00
1200
1200
0c00
0000
e780
e780
6180
6180
6180
6180
6380
7fc0
3dc0
ENDCHAR
STARTCHAR uacute
ENCODING 250
SWIDTH 600 0
DWIDTH 11 0
BBX 10 13 0 0
BITMAP
0600
0c00
1800
0000
e780
e780
6180
6180
6180
6180
6380
7fc0
3dc0
ENDCHAR
STARTCHAR udoubleacute
ENCODING 251
SWIDTH 600 0
DWIDTH 11 0
BBX 10 13 0 0
BITMAP
0d80
1b00
3600
0000
e780
e780
6180
6180
6180
6180
6380
7fc0
3dc0
ENDCHAR
STARTCHAR udiaeresis
ENCODING 252
SWIDTH 600 0
DWIDTH 11 0
BBX 10 12 0 0
BITMAP
3300
3300
0000
e780
e780
6180
6180
6180
6180
6380
7fc0
3dc0
ENDCHAR
STARTCHAR yacute
ENCODING 253
SWIDTH 600 0
DWIDTH 11 0
BBX 10 17 0 -4
BITMAP
0300
0600
0c00
0000
f3c0
f3c0
6180
6180
3300
3300
1e00
1e00
0c00
1800
3800
fc00
fc00
ENDCHAR
STARTCHAR tcedilla
ENCODING 254
SWIDTH 600 0
DWIDTH 11 0
BBX 10 17 0 -5
BITMAP
3000
3000
3000
ff00
ff00
3000
3000
3000
3000
30c0
3fc0
1f00
0800
0c00
0600
1e00
1c00
ENDCHAR
STARTCHAR abovedot
ENCODING 255
SWIDTH 600 0
DWIDTH 11 0
BBX 2 2 4 9
BITMAP
c0
c0
ENDCHAR
ENDFONT
